# Blender v2.78 (sub 0) OBJ File: ''
# www.blender.org
mtllib hielo1_sub.mtl
o Cubo.049_Cubo.115
v 0.087559 0.759644 0.052296
v 0.025895 0.801902 0.039430
v -0.017797 0.546553 0.076260
v 0.074110 0.489789 0.079903
v 0.121933 0.660246 0.056048
v 0.119681 0.758324 0.043514
v 0.138363 0.746618 0.016256
v 0.109513 0.831237 0.021784
v 0.206248 0.586972 -0.132085
v 0.145306 0.657601 -0.098433
v 0.177429 0.655759 -0.083789
v 0.158161 0.760670 -0.011665
v 0.160804 0.766053 -0.070628
v 0.114106 0.885688 -0.006453
v 0.058674 0.639871 -0.103099
v -0.014420 0.677996 -0.080521
v 0.041432 0.744303 -0.085753
v -0.024307 0.611084 -0.101199
v 0.093033 0.829585 -0.070215
v 0.021769 0.807740 -0.058220
v 0.068066 0.938901 -0.050385
v -0.009016 0.735143 -0.001851
v -0.031355 0.544263 0.011574
v 0.029306 0.840008 -0.009173
v 0.111092 0.910591 -0.023994
v 0.086831 0.867327 -0.037235
v 0.092882 0.971547 -0.015760
v 0.062519 0.857130 -0.033449
v 0.068655 0.877670 0.001617
v 0.054623 0.341635 0.006126
v 0.102944 0.342793 -0.029875
v 0.106357 0.346966 0.012469
v 0.116721 0.487646 -0.105137
v 0.121813 0.392107 0.040500
v 0.095283 0.877865 0.011539
v 0.156366 0.459646 0.006025
v 0.111649 0.747590 -0.093707
v 0.049675 0.344012 0.005040
v 0.106997 0.348771 -0.037801
v 0.127586 0.411523 0.047218
v 0.182026 0.532552 -0.006267
v 0.070555 0.522833 0.092674
v 0.102416 0.344496 0.018163
v -0.025048 0.587520 -0.141078
v -0.002671 0.769069 0.004306
v -0.031843 0.507787 0.022561
vn 0.8389 0.0879 0.5372
vn 0.8451 0.2575 0.4686
vn 0.0315 0.5534 -0.8323
vn 0.0206 0.1671 -0.9857
vn -0.9952 0.0876 0.0438
vn -0.9782 0.1210 0.1685
vn -0.8528 0.4384 0.2838
vn 0.1916 0.1874 -0.9634
vn 0.3677 0.3977 -0.8406
vn -0.4936 0.2798 0.8235
vn 0.0507 -0.9981 0.0359
vn -0.0671 -0.4013 0.9135
vn -0.1986 -0.4158 0.8875
vn 0.7566 0.2318 0.6114
vn 0.9887 0.1161 0.0952
vn 0.7107 -0.0088 0.7034
vn 0.4168 0.1694 -0.8931
vn -0.2612 0.2106 -0.9420
vn -0.3882 0.1014 -0.9160
vn 0.3350 0.1402 -0.9317
vn -0.3926 0.2611 -0.8819
vn -0.9931 0.1167 0.0071
vn 0.8325 0.3034 0.4636
vn -0.5318 0.5060 -0.6791
vn -0.2355 0.2092 -0.9491
vn -0.6703 0.1938 0.7163
vn 0.9052 -0.4140 0.0963
vn -0.4081 -0.6894 -0.5985
vn 0.9099 -0.2920 0.2946
vn 0.0594 -0.3499 0.9349
vn 0.7328 -0.6804 0.0080
vn 0.8802 -0.4048 -0.2479
vn -0.9322 0.1299 0.3378
vn -0.0966 0.1583 0.9827
vn -0.1340 0.1759 0.9752
vn 0.2664 0.1282 0.9553
vn 0.3511 0.6321 -0.6908
vn 0.9416 0.3288 0.0722
vn -0.2346 0.1215 -0.9645
vn -0.4796 0.2200 -0.8494
vn -0.9379 0.2934 -0.1851
vn -0.6567 0.2824 -0.6993
vn -0.6852 0.5958 0.4190
vn 0.2237 -0.4379 -0.8708
vn 0.0250 0.3244 0.9456
vn 0.4980 0.0446 0.8660
vn 0.2830 0.3013 0.9106
vn 0.8055 0.1029 0.5836
vn 0.1323 0.1013 -0.9860
vn 0.9409 0.2048 0.2697
vn 0.2992 0.3250 -0.8972
vn 0.0841 0.0454 -0.9954
vn 0.7748 0.2543 0.5789
vn 0.0009 0.1787 -0.9839
vn -0.9136 0.3898 -0.1160
vn -0.8464 0.2151 0.4873
vn 0.5727 0.3388 0.7465
vn 0.9440 0.2586 0.2049
vn -0.6222 0.6945 -0.3613
vn 0.9252 -0.3793 0.0095
vn -0.3393 0.2551 0.9054
vn -0.2942 0.5545 0.7784
vn -0.4670 -0.4277 0.7739
vn -0.2692 -0.5039 -0.8207
vn -0.8795 -0.4124 -0.2375
vn -0.3815 -0.3709 0.8467
vn -0.9745 0.2005 -0.1004
vn -0.9989 0.0355 -0.0312
usemtl M_HieloBase
s 1
f 6//1 5//1 7//1
f 7//2 8//2 6//2
f 44//3 16//3 15//3
f 15//4 17//4 19//4
f 16//5 44//5 45//5
f 46//6 3//6 45//6
f 45//7 2//7 24//7
f 25//8 26//8 27//8
f 13//9 19//9 25//9
f 24//10 29//10 27//10
f 30//11 31//11 43//11
f 43//12 34//12 4//12
f 43//13 4//13 30//13
f 8//14 7//14 12//14 14//14
f 13//15 12//15 41//15 11//15
f 5//16 40//16 41//16
f 13//17 11//17 10//17
f 15//18 19//18 37//18
f 10//19 9//19 33//19
f 33//20 44//20 15//20
f 17//21 16//21 20//21
f 22//22 18//22 23//22
f 21//23 28//23 26//23 19//23
f 26//24 25//24 19//24
f 26//25 28//25 27//25
f 28//26 21//26 20//26
f 43//27 36//27 34//27
f 31//28 30//28 38//28 39//28
f 34//29 36//29 41//29 40//29
f 4//30 34//30 40//30 42//30
f 43//31 31//31 39//31 32//31
f 36//32 43//32 32//32 41//32
f 22//33 23//33 46//33 45//33
usemtl M_Hielosombras
f 1//34 2//34 3//34
f 3//35 42//35 1//35
f 1//36 5//36 6//36
f 9//37 10//37 11//37
f 12//38 13//38 14//38
f 15//39 16//39 17//39
f 17//40 20//40 21//40
f 45//41 20//41 16//41
f 28//42 24//42 27//42
f 24//43 2//43 29//43
f 33//44 9//44 39//44
f 1//45 35//45 2//45
f 5//46 1//46 42//46 40//46
f 8//47 35//47 1//47 6//47
f 5//48 41//48 12//48 7//48
f 10//49 33//49 37//49 13//49
f 41//50 9//50 11//50
f 37//51 19//51 13//51
f 37//52 33//52 15//52
f 25//53 27//53 35//53 14//53
f 17//54 21//54 19//54
f 45//55 24//55 20//55
f 45//56 3//56 2//56
f 35//57 8//57 14//57
f 14//58 13//58 25//58
f 28//59 20//59 24//59
f 41//60 32//60 39//60 9//60
f 27//61 29//61 35//61
f 29//62 2//62 35//62
f 3//63 46//63 38//63 42//63
f 44//64 33//64 39//64 38//64
f 38//65 46//65 44//65
usemtl M_HieloExtra
f 30//66 4//66 42//66 38//66
f 18//67 22//67 45//67 44//67
f 23//68 18//68 44//68 46//68
