# Blender v2.78 (sub 0) OBJ File: ''
# www.blender.org
mtllib hielo2.mtl
o HieloParticula02_Cubo.114
v 0.210205 1.110635 -0.051896
v 0.090956 0.654328 -0.163525
v -0.011344 1.378175 0.105316
v -0.002855 1.639578 0.101462
v 0.089419 1.361479 0.153661
v 0.279640 1.272908 0.167443
v 0.181782 0.411528 0.297636
v 0.011082 1.228904 0.165244
v 0.073942 0.452311 0.380243
v 0.069464 -0.103148 0.487316
v 0.215973 -0.473567 0.196467
v 0.351012 -0.143855 0.147854
v 0.296923 -0.291004 0.015793
v 0.390475 -0.416705 0.048853
v -0.072932 -0.432845 0.214568
v -0.075798 -0.401596 0.149873
v -0.120902 -0.629887 -0.022777
v 0.224361 -0.054797 -0.098625
v 0.490905 -0.125985 -0.117250
v 0.530266 -0.148625 -0.094219
v 0.543756 0.685653 0.065301
v 0.514470 0.982002 0.045655
v 0.480538 0.426753 0.155690
v 0.308226 0.700746 0.185355
v 0.339386 0.310965 0.185659
v 0.280592 1.422234 0.057624
v 0.551424 0.440734 -0.150816
v 0.471145 0.330754 -0.086978
v -0.370161 -0.045480 0.113751
v -0.003229 1.268173 0.170895
v -0.163786 0.283529 -0.264014
v -0.174134 0.314814 -0.504412
v 0.191018 0.919288 0.195518
v 0.197400 0.448863 -0.191990
v -0.104834 0.018309 -0.215015
v 0.047436 -0.781586 0.273844
v 0.110896 -0.478272 0.141092
v 0.107165 -0.323610 -0.012406
v 0.042731 -0.010513 -0.171974
v 0.098312 1.618821 0.089501
v -0.241080 0.882047 0.004406
v -0.440393 0.052361 -0.422760
v -0.011838 0.452471 -0.283349
v 0.104904 0.731927 0.246823
v -0.236481 0.234873 0.553559
v -0.007772 1.462151 0.138683
v 0.079247 1.052017 0.193455
v -0.113042 0.680164 -0.261321
vn -0.2634 0.2936 -0.9189
vn 0.0416 0.2403 0.9698
vn 0.0437 0.2421 0.9693
vn 0.7403 -0.2090 0.6390
vn 0.1948 0.0163 0.9807
vn 0.1929 0.0152 0.9811
vn -0.8293 0.3549 -0.4316
vn 0.3142 0.1473 -0.9379
vn -0.9992 0.0328 0.0244
vn -0.6673 -0.1370 -0.7321
vn -0.6663 -0.1373 -0.7329
vn -0.6771 0.7254 0.1236
vn 0.6135 0.4653 0.6381
vn 0.6156 0.4649 0.6363
vn 0.4622 0.1620 0.8719
vn 0.4635 0.1641 0.8708
vn 0.3132 0.2216 0.9235
vn 0.3121 0.2237 0.9234
vn 0.3124 0.2205 0.9240
vn 0.5989 0.0485 0.7994
vn 0.5970 0.0486 0.8007
vn 0.0209 -0.1184 -0.9927
vn 0.3424 -0.7332 -0.5875
vn 0.2593 -0.3956 -0.8810
vn 0.2614 -0.3951 -0.8807
vn 0.4212 0.9032 -0.0822
vn 0.3839 0.3189 -0.8666
vn 0.4436 0.2796 -0.8515
vn 0.8493 -0.1469 0.5071
vn 0.4010 0.1544 0.9030
vn 0.4005 0.1522 0.9036
vn -0.9024 -0.3165 -0.2925
vn -0.9032 -0.3132 -0.2934
vn -0.9018 -0.3181 -0.2926
vn -0.7276 -0.6287 -0.2745
vn -0.7280 -0.6294 -0.2717
vn -0.9708 -0.0518 0.2343
vn -0.9706 -0.0508 0.2354
vn 0.0094 -0.9835 -0.1806
vn 0.0122 -0.9834 -0.1809
vn 0.0118 -0.9838 -0.1788
vn 0.3758 -0.6008 -0.7055
vn 0.3739 -0.6015 -0.7060
vn 0.6766 -0.2529 -0.6915
vn 0.6775 -0.2538 -0.6903
vn 0.6755 -0.2549 -0.6919
vn -0.5998 0.0681 0.7973
vn -0.6001 0.0666 0.7972
vn -0.5994 0.0677 0.7976
vn -0.8397 -0.3969 0.3707
vn -0.8394 -0.3951 0.3732
vn -0.8409 -0.3930 0.3721
vn 0.0420 0.1410 0.9891
vn -0.0963 0.1205 0.9880
vn -0.0966 0.1193 0.9881
vn -0.0951 0.1213 0.9880
vn -0.6313 0.5000 -0.5928
vn -0.9723 0.1558 0.1740
vn -0.9721 0.1543 0.1764
vn -0.9717 0.1580 0.1757
vn -0.2625 0.3664 -0.8926
vn 0.6477 0.2685 0.7130
vn 0.6467 0.2682 0.7140
vn -0.4450 -0.5225 -0.7273
vn 0.4348 -0.4359 -0.7880
vn 0.1992 -0.3770 -0.9046
vn 0.0540 -0.6644 -0.7454
vn 0.6321 0.1133 0.7666
vn 0.5078 0.0515 0.8599
vn 0.5121 0.0518 0.8574
vn 0.5101 0.0524 0.8585
vn 0.7987 -0.0998 0.5934
vn -0.1456 0.2353 -0.9609
vn 0.9848 -0.0966 0.1444
vn 0.8517 0.0496 -0.5217
vn 0.2149 0.4009 0.8906
vn 0.2178 0.3985 0.8909
vn 0.2163 0.4008 0.8903
vn -0.2445 0.6251 0.7413
vn -0.2469 0.6271 0.7388
vn -0.2467 0.6260 0.7398
vn 0.0202 0.0988 0.9949
vn 0.0200 0.1016 0.9946
vn 0.3276 0.8217 -0.4664
vn 0.1551 0.0390 0.9871
vn 0.1579 0.0388 0.9867
vn 0.1599 0.0398 0.9863
vn 0.3048 0.1179 0.9451
vn 0.3051 0.1211 0.9446
vn 0.3040 0.1191 0.9452
vn 0.1916 0.1763 0.9655
vn 0.1930 0.1765 0.9652
vn 0.7216 0.0334 0.6915
vn -0.1200 -0.2944 0.9481
vn -0.1228 -0.2948 0.9476
vn 0.7200 -0.2294 0.6549
vn 0.2209 -0.6843 -0.6949
vn -0.1933 -0.3816 -0.9039
vn -0.1868 -0.4742 -0.8604
vn 0.3661 -0.1632 -0.9162
vn 0.3650 -0.1614 -0.9169
vn 0.7539 0.3861 0.5315
vn 0.7542 0.3837 0.5329
vn 0.3702 0.1852 -0.9103
vn 0.2642 -0.0732 0.9617
vn 0.6679 -0.1666 0.7254
vn 0.5611 0.1467 -0.8147
vn -0.4238 -0.4022 -0.8116
vn 0.3518 -0.3060 -0.8846
vn 0.3537 -0.3054 -0.8841
vn 0.3531 -0.3077 -0.8835
vn -0.7677 0.3131 -0.5592
vn 0.4802 -0.8683 0.1241
vn 0.1210 0.2218 0.9676
usemtl M_HieloBase
s 1
f 1//1 2//1 41//1
f 40//2 5//2 6//3
f 10//4 11//4 12//4
f 23//5 24//6 25//5
f 27//7 28//7 21//7
f 28//8 2//8 1//8
f 3//9 46//9 4//9
f 8//10 30//11 46//11
f 42//12 31//12 32//12
f 26//13 40//13 6//14
f 45//15 10//16 7//16 9//16
f 7//17 24//18 44//19
f 7//20 25//20 24//21
f 18//22 34//22 27//22 19//22
f 13//23 11//23 37//23
f 38//24 39//25 18//24
f 28//26 27//26 34//26 2//26
f 43//27 2//27 34//27
f 43//28 48//28 2//28
f 20//29 21//29 23//29 12//29
f 23//30 22//30 24//31
f 17//32 16//32 29//33 35//34
f 29//35 16//36 15//36
f 3//37 8//38 46//37
f 29//39 42//40 35//41
f 42//42 32//42 35//43
f 35//44 32//45 43//45 39//46
f 8//47 3//48 41//48 44//49
f 29//50 15//51 36//51 45//52
f 46//53 30//53 47//53 5//53
f 30//54 8//55 44//56 47//54
f 32//57 31//57 48//57 43//57
f 42//58 29//59 45//60 41//58
f 31//61 42//61 41//61 48//61
usemtl M_Hielosombras
f 7//62 44//63 9//62
f 13//64 14//64 11//64
f 36//65 37//65 11//65
f 38//66 18//66 13//66
f 13//67 19//67 20//67
f 21//68 22//68 23//68
f 6//69 24//70 22//71
f 12//72 14//72 20//72
f 40//73 26//73 1//73 41//73
f 21//74 19//74 27//74
f 21//75 28//75 22//75
f 44//76 45//77 9//78
f 45//79 44//80 41//81
f 33//82 6//83 5//82 47//82
f 41//84 2//84 48//84
f 6//85 33//86 24//87
f 44//88 24//89 33//90
f 33//91 47//91 44//92
f 12//93 25//93 7//93 10//93
f 10//94 45//95 36//94
f 10//96 36//96 11//96
f 13//97 37//97 38//97
f 13//98 20//98 14//98
f 13//99 18//99 19//99
f 43//100 34//100 18//100 39//101
f 22//102 26//102 6//103
f 26//104 22//104 28//104 1//104
f 23//105 25//105 12//105
f 12//106 11//106 14//106
f 21//107 20//107 19//107
usemtl M_HieloExtra
f 15//108 16//108 37//108 36//108
f 17//109 35//110 39//111 38//109
f 3//112 4//112 40//112 41//112
f 16//113 17//113 38//113 37//113
f 4//114 46//114 5//114 40//114
