# Blender v2.78 (sub 0) OBJ File: ''
# www.blender.org
mtllib roca2_sub.mtl
o RocaParticula01_Cubo.016_Cubo.021
v -0.059251 0.004905 0.083755
v -0.085464 0.064958 0.071130
v -0.079737 -0.090458 0.070686
v -0.049586 -0.056709 0.101006
v 0.146541 0.026475 -0.046324
v 0.093641 0.139124 -0.009484
v 0.111206 -0.045611 0.043602
v 0.110226 -0.159273 0.001338
v 0.121456 -0.118979 0.075386
v 0.111423 -0.097707 -0.111347
v 0.087036 0.132603 -0.097882
v 0.072141 0.189535 -0.039380
v 0.040550 -0.068233 -0.153357
v 0.042504 -0.135269 -0.179677
v -0.070015 -0.082925 -0.116679
v -0.096253 -0.039531 -0.035472
v -0.073157 0.010205 -0.084385
v -0.056146 0.124081 0.008016
v -0.053977 0.110494 -0.067446
v -0.075009 -0.143268 -0.060357
v -0.093722 0.029394 0.051690
v 0.037737 -0.016220 0.086220
v 0.029228 -0.124562 0.112256
v 0.028671 0.172074 -0.089376
v 0.023682 0.095242 -0.110934
v -0.046817 0.128693 0.046919
v -0.011009 -0.055703 0.098910
v -0.006408 0.150018 -0.098332
v 0.042561 0.157926 0.028529
v -0.061356 -0.091777 0.100826
v 0.017265 -0.136552 -0.075126
v -0.081902 -0.091001 -0.094232
v 0.081900 -0.125783 0.097277
v -0.064036 -0.179534 0.002213
v -0.000416 -0.219157 0.034543
v 0.020499 -0.217098 -0.021299
v 0.002091 -0.100469 -0.123555
v 0.132016 -0.155447 -0.044524
v 0.105006 -0.130279 0.042304
v 0.061622 -0.127134 -0.164210
v -0.019613 -0.114226 0.109392
v 0.001780 -0.123680 -0.158783
v -0.023795 -0.147751 0.098413
v 0.036725 -0.181146 0.063861
vn -0.4704 -0.0199 0.8822
vn -0.4944 0.1616 0.8541
vn 0.8320 0.2248 0.5072
vn 0.9523 -0.1135 0.2832
vn 0.9812 -0.0746 0.1778
vn 0.9318 -0.0779 -0.3545
vn 0.8926 0.4148 -0.1764
vn -0.3364 0.3218 -0.8850
vn -0.9327 0.0896 -0.3493
vn -0.9639 0.2559 -0.0738
vn -0.9493 0.2196 -0.2250
vn -0.9801 -0.1814 -0.0805
vn -0.9391 0.2823 -0.1960
vn 0.0406 0.2675 -0.9627
vn 0.1547 0.2675 0.9511
vn -0.0919 -0.5551 -0.8267
vn -0.0926 -0.5511 -0.8293
vn -0.0918 -0.5558 -0.8262
vn -0.7412 -0.5159 0.4295
vn 0.0438 0.2750 0.9604
vn 0.0338 0.2677 0.9629
vn 0.0442 0.2753 0.9603
vn 0.0450 0.2759 0.9601
vn -0.0198 0.1791 0.9836
vn 0.0681 0.2281 0.9713
vn 0.6542 0.1130 -0.7478
vn 0.9096 0.4132 0.0426
vn 0.5059 0.3280 -0.7978
vn -0.3835 0.2305 -0.8943
vn 0.0482 0.2556 -0.9656
vn -0.4640 0.1342 -0.8756
vn 0.6129 0.5798 0.5368
vn -0.5246 0.8505 -0.0378
vn 0.0790 0.2645 -0.9611
vn 0.3925 0.7071 -0.5882
vn -0.3506 0.9216 0.1665
vn -0.5562 0.8110 0.1812
vn 0.0684 0.2981 0.9521
vn -0.4853 -0.6658 0.5668
vn -0.4620 -0.8001 -0.3827
vn -0.0928 -0.5501 -0.8299
vn -0.6238 -0.5425 0.5627
vn -0.4435 -0.8740 -0.1983
vn 0.5042 -0.8474 0.1663
vn 0.5057 -0.8476 0.1606
vn 0.5063 -0.8477 0.1584
vn -0.0079 -0.8809 0.4732
vn 0.5672 -0.7093 0.4186
vn 0.1397 -0.6328 0.7616
vn 0.5805 0.3437 -0.7382
vn 0.0491 0.1691 0.9844
vn -0.1732 0.0531 0.9834
vn -0.3252 -0.2574 0.9099
vn -0.1182 -0.2957 0.9479
vn 0.5036 -0.8474 0.1686
vn 0.1304 -0.5473 -0.8267
vn 0.0536 -0.7473 -0.6623
vn 0.2721 0.2046 0.9403
vn -0.8935 0.2063 -0.3989
vn -0.3537 0.3329 -0.8741
vn 0.9033 -0.0679 0.4235
vn -0.8464 0.1104 0.5210
vn -0.9762 -0.2113 0.0497
vn -0.9762 -0.2110 0.0506
vn -0.9762 -0.2115 0.0488
vn 0.3861 0.4116 0.8256
vn 0.5933 0.2566 0.7630
vn -0.9894 -0.0985 0.1067
vn -0.9407 0.3024 -0.1537
vn -0.8958 -0.0343 0.4432
vn -0.8244 0.5502 0.1325
vn -0.0354 -0.8586 0.5113
vn 0.0883 -0.7853 -0.6128
vn -0.2516 -0.8606 -0.4429
vn -0.2724 -0.8105 -0.5185
vn 0.0017 -0.8350 0.5502
vn -0.1488 -0.8251 0.5450
vn 0.5398 -0.7897 0.2915
vn 0.5663 0.3055 0.7655
vn -0.9762 -0.2116 0.0486
vn 0.9018 -0.0595 -0.4281
usemtl M_PiedraBase
s 1
f 1//1 2//1 3//1
f 4//2 1//2 30//2
f 5//3 6//3 7//3
f 7//4 8//4 5//4
f 39//5 8//5 7//5
f 38//6 10//6 5//6
f 5//7 11//7 12//7
f 15//8 13//8 42//8
f 16//9 17//9 15//9
f 18//10 19//10 16//10
f 16//11 19//11 17//11
f 32//12 20//12 16//12
f 16//13 21//13 18//13
f 24//14 11//14 25//14
f 2//15 1//15 26//15
f 20//16 31//17 36//18
f 3//19 43//19 30//19
f 27//20 22//21 1//22
f 27//20 1//22 4//23
f 23//24 27//24 41//24
f 27//25 23//25 22//25
f 11//26 5//26 10//26 13//26
f 5//27 12//27 6//27
f 40//28 14//28 13//28
f 17//29 25//29 13//29 15//29
f 13//30 25//30 11//30
f 28//31 25//31 17//31 19//31
f 12//32 29//32 6//32
f 18//33 12//33 24//33 19//33
f 24//34 25//34 28//34
f 12//35 11//35 24//35
f 29//36 12//36 18//36 26//36
f 24//37 28//37 19//37
f 22//38 29//38 26//38 1//38
f 44//39 43//39 3//39 35//39
f 20//40 36//40 34//40
f 31//17 20//16 32//41
f 34//42 35//42 3//42
f 34//43 36//43 35//43
f 36//44 8//45 35//46
f 40//47 42//47 14//47
f 39//48 44//48 35//48 8//48
f 33//49 23//49 43//49 44//49
f 10//50 40//50 13//50
f 27//51 4//51 41//51
f 30//52 41//52 4//52
f 30//53 43//53 41//53
f 43//54 23//54 41//54
f 36//44 38//55 8//45
f 36//56 31//56 38//56
f 31//57 10//57 38//57
f 22//58 23//58 33//58
f 15//59 32//59 16//59
f 13//60 14//60 42//60
f 8//61 38//61 5//61
f 1//62 3//62 30//62
usemtl M_PiedraSombra
f 34//63 3//64 16//65
f 9//66 7//66 33//66
f 7//67 6//67 29//67 22//67
f 16//68 3//68 21//68
f 18//69 21//69 2//69
f 21//70 3//70 2//70
f 18//71 2//71 26//71
f 10//72 37//72 40//72
f 10//73 31//73 37//73
f 37//74 32//74 15//74
f 37//75 31//75 32//75
f 40//76 37//76 42//76
f 37//77 15//77 42//77
f 9//78 33//78 44//78 39//78
f 7//79 22//79 33//79
f 20//80 34//63 16//65
f 9//81 39//81 7//81
