# Blender v2.78 (sub 0) OBJ File: ''
# www.blender.org
mtllib prueba_obj.mtl
o RocaParticula03_Cubo.016_Cubo.022
v -0.308912 0.055784 0.466156
v -0.544660 0.213002 0.354266
v -0.511801 -0.097999 0.353873
v -0.215310 -0.123866 0.577429
v 0.778470 0.061588 -0.131394
v 0.581672 0.298696 0.093628
v 0.652457 -0.031786 0.237927
v 0.660443 -0.252635 -0.006661
v 0.645023 -0.167961 0.397154
v 0.582928 -0.200842 -0.314788
v 0.412546 0.241650 -0.343336
v 0.305644 0.356535 -0.032885
v 0.243105 -0.116233 -0.501745
v 0.269072 -0.283548 -0.515749
v -0.382652 -0.121104 -0.379385
v -0.703544 0.003039 -0.051190
v -0.510075 0.101414 -0.347615
v -0.506912 0.290372 0.129220
v -0.464844 0.229190 -0.173575
v -0.464317 -0.267425 -0.130351
v -0.719029 0.168290 0.261797
v 0.155968 0.041336 0.430198
v 0.101932 -0.208072 0.511459
v 0.059777 0.306028 -0.265855
v 0.019623 0.217687 -0.422112
v -0.366154 0.339703 0.332098
v -0.046838 -0.091470 0.524740
v -0.146764 0.266977 -0.308547
v 0.143476 0.373715 0.237539
v -0.325463 -0.183901 0.552474
v 0.105269 -0.277858 -0.234376
v -0.453032 -0.174659 -0.257477
v 0.394700 -0.151883 0.456456
v -0.452670 -0.288892 0.078432
v 0.015495 -0.345014 0.160927
v 0.122355 -0.380563 -0.088942
v 0.038435 -0.236593 -0.361008
v 0.685350 -0.265670 -0.190245
v 0.653293 -0.226612 0.262530
v 0.358101 -0.274007 -0.451688
v -0.094504 -0.245996 0.581459
v 0.059878 -0.258313 -0.476809
v -0.142572 -0.288537 0.513593
v 0.245362 -0.309928 0.377339
vn -0.4548 -0.0492 0.8892
vn -0.4552 -0.0492 0.8890
vn -0.4575 -0.0495 0.8878
vn -0.3788 0.3366 0.8621
vn 0.8562 0.3495 0.3805
vn 0.9341 -0.2494 0.2557
vn 0.7447 -0.0931 -0.6609
vn -0.1919 0.0758 -0.9785
vn -0.7338 -0.3359 -0.5904
vn -0.7290 0.6442 -0.2314
vn -0.7315 0.6262 -0.2696
vn -0.7320 -0.5178 -0.4428
vn -0.6296 0.6738 -0.3869
vn -0.1669 0.3933 0.9042
vn -0.1179 -0.8176 -0.5636
vn -0.4830 -0.8723 0.0758
vn 0.0823 0.4915 0.8670
vn 0.1420 0.5736 0.8067
vn 0.2805 0.2525 0.9260
vn 0.2776 0.2484 0.9280
vn 0.2810 0.2531 0.9257
vn 0.2741 0.2437 0.9303
vn 0.5284 0.1496 -0.8357
vn 0.3871 0.7831 -0.4866
vn 0.5659 0.1556 -0.8096
vn -0.1760 0.0853 -0.9807
vn 0.1659 0.3324 -0.9284
vn -0.2828 0.7590 -0.5864
vn 0.3643 0.4580 0.8109
vn 0.1838 0.9818 0.0478
vn -0.1338 0.9791 -0.1532
vn -0.1023 0.9844 -0.1430
vn 0.1074 0.4751 0.8733
vn -0.2703 -0.9622 0.0329
vn -0.1824 -0.9790 -0.0905
vn 0.0910 -0.9317 -0.3516
vn -0.2102 -0.8446 -0.4924
vn -0.1682 -0.9600 -0.2241
vn -0.1227 -0.7965 -0.5921
vn -0.1925 -0.8254 0.5307
vn -0.1331 -0.9876 0.0836
vn 0.1939 -0.9563 0.2190
vn -0.0714 -0.9673 0.2433
vn 0.1757 -0.9835 0.0432
vn 0.2384 -0.7562 0.6093
vn 0.2393 -0.6328 0.7364
vn 0.4969 0.0883 -0.8633
vn 0.2402 0.2683 0.9329
vn -0.1557 -0.1217 0.9803
vn -0.2731 -0.7161 0.6423
vn 0.2958 -0.8896 0.3481
vn 0.2159 -0.9715 0.0983
vn 0.0612 -0.8119 -0.5806
vn 0.0560 -0.8660 -0.4968
vn 0.1244 0.2829 0.9510
vn -0.7317 -0.3584 -0.5798
vn -0.1763 0.0549 -0.9828
vn 0.9437 -0.2953 0.1490
vn -0.6265 0.3020 0.7185
vn 0.9996 0.0076 0.0258
vn 0.5023 0.8529 -0.1426
vn -0.7862 -0.5740 0.2290
vn 0.1997 0.7400 0.6422
vn 0.0477 0.8642 -0.5009
vn -0.8043 -0.5409 0.2458
vn -0.3620 0.8985 0.2482
vn -0.4580 -0.0495 0.8876
vn -0.0668 0.8758 -0.4780
vn 0.1034 0.9439 -0.3137
vn -0.1628 0.9806 -0.1092
vn -0.5532 0.8120 0.1864
vn 0.0211 -0.8958 0.4440
vn -0.0662 -0.9829 0.1721
vn -0.2675 -0.9548 0.1295
vn 0.3699 0.5579 0.7429
vn -0.7525 -0.6581 -0.0257
vn 0.9983 0.0114 0.0564
usemtl M_PiedraBase
s 1
f 1//1 2//2 3//3
f 4//4 1//4 30//4
f 5//5 6//5 7//5
f 7//6 8//6 5//6
f 38//7 10//7 5//7
f 15//8 13//8 42//8
f 16//9 17//9 15//9
f 18//10 19//10 16//10
f 16//11 19//11 17//11
f 32//12 20//12 16//12
f 16//13 21//13 18//13
f 2//14 1//14 26//14
f 20//15 31//15 36//15
f 3//16 43//16 30//16
f 27//17 22//17 1//17
f 27//18 1//18 4//18
f 23//19 27//20 41//21
f 27//20 23//19 22//22
f 11//23 5//23 10//23 13//23
f 5//24 12//24 6//24
f 40//25 14//25 13//25
f 17//26 25//26 13//26 15//26
f 13//27 25//27 11//27
f 28//28 25//28 17//28 19//28
f 7//29 6//29 29//29 22//29
f 12//30 29//30 6//30
f 18//31 12//31 24//31 19//31
f 29//32 12//32 18//32 26//32
f 22//33 29//33 26//33 1//33
f 44//34 43//34 3//34 35//34
f 20//35 36//35 34//35
f 10//36 31//36 37//36
f 37//37 32//37 15//37
f 37//38 31//38 32//38
f 31//39 20//39 32//39
f 34//40 35//40 3//40
f 34//41 36//41 35//41
f 36//42 8//42 35//42
f 40//43 42//43 14//43
f 39//44 44//44 35//44 8//44
f 9//45 33//45 44//45 39//45
f 33//46 23//46 43//46 44//46
f 10//47 40//47 13//47
f 27//48 4//48 41//48
f 30//49 41//49 4//49
f 30//50 43//50 41//50
f 43//51 23//51 41//51
f 36//52 38//52 8//52
f 36//53 31//53 38//53
f 31//54 10//54 38//54
f 22//55 23//55 33//55
f 15//56 32//56 16//56
f 13//57 14//57 42//57
f 8//58 38//58 5//58
f 1//59 3//59 30//59
usemtl M_PiedraSombra
f 39//60 8//60 7//60
f 5//61 11//61 12//61
f 34//62 3//62 16//62
f 9//63 7//63 33//63
f 24//64 11//64 25//64
f 16//65 3//65 21//65
f 18//66 21//66 2//66
f 21//67 3//3 2//2
f 24//68 25//68 28//68
f 12//69 11//69 24//69
f 24//70 28//70 19//70
f 18//71 2//71 26//71
f 10//72 37//72 40//72
f 40//73 37//73 42//73
f 37//74 15//74 42//74
f 7//75 22//75 33//75
f 20//76 34//76 16//76
f 9//77 39//77 7//77
