# Blender v2.78 (sub 0) OBJ File: ''
# www.blender.org
mtllib roca3_sub.mtl
o RocaParticula02_Cubo.016_Cubo.020
v -0.011546 0.016947 0.061571
v -0.048888 0.060674 0.050482
v -0.056814 -0.088656 0.061282
v 0.003767 -0.070981 0.086664
v 0.204822 0.022172 -0.089756
v 0.151386 0.098976 -0.044857
v 0.152812 -0.022096 0.005989
v 0.167766 -0.146300 -0.052033
v 0.174834 -0.101646 0.044768
v 0.181596 -0.096637 -0.142495
v 0.140667 0.066001 -0.137522
v 0.122566 0.131864 -0.078089
v 0.083516 -0.061173 -0.178737
v 0.093559 -0.114833 -0.211452
v -0.053401 -0.092690 -0.160440
v -0.078659 -0.015704 -0.083037
v -0.045136 0.005033 -0.142526
v -0.032365 0.098285 -0.027932
v -0.034065 0.059080 -0.113707
v -0.065348 -0.118181 -0.115579
v -0.069889 0.021464 0.020653
v 0.090776 -0.002452 0.062988
v 0.093994 -0.134715 0.088996
v 0.068808 0.103648 -0.121432
v 0.076584 0.055363 -0.168585
v -0.008862 0.105706 0.017213
v 0.042771 -0.033115 0.062364
v 0.047608 0.087175 -0.163449
v 0.086653 0.118712 -0.010414
v -0.024231 -0.094801 0.074225
v 0.060065 -0.117917 -0.111925
v -0.055653 -0.088841 -0.137918
v 0.127246 -0.133023 0.070895
v -0.028838 -0.158534 -0.026397
v 0.054751 -0.188273 -0.000980
v 0.067676 -0.180754 -0.069889
v 0.051007 -0.099297 -0.154031
v 0.196418 -0.126051 -0.094669
v 0.174810 -0.108580 -0.003673
v 0.125979 -0.116693 -0.181626
v 0.041738 -0.114332 0.086880
v 0.035915 -0.111322 -0.182133
v 0.021460 -0.144647 0.081631
v 0.094699 -0.161351 0.036144
vn -0.1953 0.0811 0.9774
vn -0.5074 0.1536 0.8479
vn 0.8026 0.2390 0.5465
vn 0.8928 -0.0979 0.4397
vn 0.9017 0.2673 -0.3399
vn 0.9465 -0.0431 -0.3198
vn 0.7040 0.5726 -0.4201
vn -0.1822 0.2375 -0.9541
vn -0.8756 0.4457 -0.1864
vn -0.9198 0.0051 -0.3924
vn -0.9401 -0.3396 -0.0293
vn -0.9126 0.4032 -0.0673
vn 0.1669 0.4690 0.8673
vn 0.2141 0.6999 -0.6814
vn 0.2424 0.4278 0.8707
vn 0.0254 -0.5537 -0.8323
vn -0.0137 0.0010 0.9999
vn 0.2700 0.3074 0.9125
vn 0.0734 0.2873 0.9550
vn -0.1328 0.1881 0.9731
vn 0.5129 0.1549 -0.8443
vn 0.7922 0.6036 -0.0897
vn 0.6037 0.4943 -0.6254
vn 0.4199 0.1035 -0.9017
vn 0.6163 0.3705 0.6949
vn -0.9908 -0.0766 0.1113
vn -0.8905 0.4540 0.0301
vn -0.8624 0.0819 0.4995
vn 0.4541 0.7981 0.3961
vn -0.3396 0.8857 -0.3166
vn 0.5804 0.6149 -0.5339
vn 0.2031 0.6862 -0.6985
vn -0.1735 0.9844 0.0309
vn 0.1302 0.4858 0.8643
vn -0.6454 0.7328 0.2155
vn -0.0249 -0.8748 0.4838
vn -0.3310 -0.9032 -0.2732
vn 0.0551 -0.9087 -0.4137
vn -0.0722 -0.9843 0.1610
vn -0.1462 -0.9160 -0.3736
vn 0.0243 -0.6107 -0.7915
vn -0.2883 -0.9446 -0.1571
vn 0.3317 -0.9425 -0.0406
vn -0.0595 -0.9982 0.0025
vn -0.0564 -0.9066 0.4182
vn -0.0833 -0.8992 0.4295
vn 0.5314 -0.7902 0.3054
vn 0.5861 -0.8026 0.1107
vn 0.1424 -0.8831 0.4470
vn 0.4380 0.3774 -0.8159
vn 0.3050 0.2716 0.9128
vn -0.2434 -0.2085 0.9472
vn -0.1987 -0.0366 0.9794
vn -0.0848 -0.1146 0.9898
vn 0.3505 -0.9152 -0.1991
vn 0.0727 -0.5485 -0.8330
vn 0.0161 -0.8494 -0.5274
vn 0.4630 0.1819 0.8675
vn 0.6969 0.2357 0.6773
vn -0.9343 -0.2123 0.2864
vn -0.9630 -0.2646 -0.0511
vn -0.3896 0.4252 -0.8170
vn 0.8423 -0.0655 0.5350
vn 0.9675 0.2502 -0.0363
vn -0.8828 0.1559 -0.4431
vn -0.8595 0.3662 -0.3567
vn -0.3965 -0.2315 0.8884
vn -0.2069 0.1283 -0.9699
vn -0.4226 0.2557 -0.8695
vn -0.4025 0.9029 -0.1509
vn -0.3679 -0.8753 0.3140
vn -0.4200 -0.7703 0.4799
vn -0.3418 0.1440 0.9287
usemtl M_PiedraBase
s 1
f 1//1 2//1 3//1
f 4//2 1//2 30//2
f 5//3 6//3 7//3
f 7//4 8//4 5//4
f 39//5 8//5 7//5
f 38//6 10//6 5//6
f 5//7 11//7 12//7
f 15//8 13//8 42//8
f 18//9 19//9 16//9
f 32//10 20//10 16//10
f 34//11 3//11 16//11
f 16//12 21//12 18//12
f 9//13 7//13 33//13
f 24//14 11//14 25//14
f 2//15 1//15 26//15
f 20//16 31//16 36//16
f 27//17 22//17 1//17
f 27//18 1//18 4//18
f 23//19 27//19 41//19
f 27//20 23//20 22//20
f 11//21 5//21 10//21 13//21
f 5//22 12//22 6//22
f 40//23 14//23 13//23
f 13//24 25//24 11//24
f 7//25 6//25 29//25 22//25
f 16//26 3//26 21//26
f 18//27 21//27 2//27
f 21//28 3//28 2//28
f 12//29 29//29 6//29
f 18//30 12//30 24//30 19//30
f 24//31 25//31 28//31
f 12//32 11//32 24//32
f 29//33 12//33 18//33 26//33
f 22//34 29//34 26//34 1//34
f 18//35 2//35 26//35
f 10//36 37//36 40//36
f 20//37 36//37 34//37
f 10//38 31//38 37//38
f 37//39 32//39 15//39
f 37//40 31//40 32//40
f 31//41 20//41 32//41
f 34//42 36//42 35//42
f 36//43 8//43 35//43
f 40//44 42//44 14//44
f 40//45 37//45 42//45
f 37//46 15//46 42//46
f 39//47 44//47 35//47 8//47
f 9//48 33//48 44//48 39//48
f 33//49 23//49 43//49 44//49
f 10//50 40//50 13//50
f 27//51 4//51 41//51
f 30//52 41//52 4//52
f 30//53 43//53 41//53
f 43//54 23//54 41//54
f 36//55 38//55 8//55
f 36//56 31//56 38//56
f 31//57 10//57 38//57
f 22//58 23//58 33//58
f 7//59 22//59 33//59
f 20//60 34//60 16//60
f 15//61 32//61 16//61
f 13//62 14//62 42//62
f 8//63 38//63 5//63
f 9//64 39//64 7//64
usemtl M_PiedraSombra
f 16//65 17//65 15//65
f 16//66 19//66 17//66
f 3//67 43//67 30//67
f 17//68 25//68 13//68 15//68
f 28//69 25//69 17//69 19//69
f 24//70 28//70 19//70
f 44//71 43//71 3//71 35//71
f 34//72 35//72 3//72
f 1//73 3//73 30//73
